<svg xmlns="http://www.w3.org/2000/svg" viewBox="0 0 512 512" width="512" height="512">
  <defs>
    <linearGradient id="bgGrad" x1="0%" y1="0%" x2="100%" y2="100%">
      <stop offset="0%" stop-color="#0B1628"/>
      <stop offset="100%" stop-color="#0F2040"/>
    </linearGradient>
    <linearGradient id="goldRing" x1="0%" y1="0%" x2="100%" y2="100%">
      <stop offset="0%"   stop-color="#E2C06A"/>
      <stop offset="40%"  stop-color="#C9A030"/>
      <stop offset="70%"  stop-color="#F0D080"/>
      <stop offset="100%" stop-color="#A87820"/>
    </linearGradient>
    <linearGradient id="goldIcon" x1="0%" y1="0%" x2="100%" y2="100%">
      <stop offset="0%"   stop-color="#F0D880"/>
      <stop offset="50%"  stop-color="#C9A030"/>
      <stop offset="100%" stop-color="#E2C06A"/>
    </linearGradient>
    <linearGradient id="innerCircle" x1="0%" y1="0%" x2="100%" y2="100%">
      <stop offset="0%"   stop-color="#112040"/>
      <stop offset="100%" stop-color="#0A1830"/>
    </linearGradient>
    <filter id="glow" x="-20%" y="-20%" width="140%" height="140%">
      <feGaussianBlur stdDeviation="4" result="coloredBlur"/>
      <feMerge>
        <feMergeNode in="coloredBlur"/>
        <feMergeNode in="SourceGraphic"/>
      </feMerge>
    </filter>
    <filter id="shadow">
      <feDropShadow dx="0" dy="6" stdDeviation="10" flood-color="#000" flood-opacity="0.5"/>
    </filter>
    <clipPath id="clip">
      <circle cx="256" cy="256" r="185"/>
    </clipPath>
  </defs>

  <!-- Background square (rounded for maskable) -->
  <rect width="512" height="512" rx="90" fill="url(#bgGrad)"/>

  <!-- Subtle glow blobs -->
  <circle cx="380" cy="100" r="160" fill="#1A3060" opacity="0.18"/>
  <circle cx="130" cy="400" r="130" fill="#1A3060" opacity="0.12"/>

  <!-- Outer gold ring -->
  <circle cx="256" cy="256" r="210" fill="url(#goldRing)" filter="url(#shadow)"/>

  <!-- Inner dark circle -->
  <circle cx="256" cy="256" r="185" fill="url(#innerCircle)"/>

  <!-- Inner accent ring -->
  <circle cx="256" cy="256" r="185" fill="none" stroke="#C9A030" stroke-width="1.5" opacity="0.4"/>

  <!-- Decorative arc top -->
  <path d="M 100,180 A 175,175 0 0,1 412,180"
        fill="none" stroke="#F0D880" stroke-width="1.2" opacity="0.25"/>

  <!-- ECG line transitioning into rising chart -->
  <g filter="url(#glow)" clip-path="url(#clip)">
    <polyline
      points="88,256 120,256 142,208 165,300 186,188 207,300 220,256 256,256 292,256 318,226 344,200 370,172 396,144"
      fill="none"
      stroke="url(#goldIcon)"
      stroke-width="8"
      stroke-linecap="round"
      stroke-linejoin="round"
    />
    <!-- Arrow tip on trend line -->
    <polyline
      points="382,155 396,144 385,170"
      fill="none"
      stroke="url(#goldIcon)"
      stroke-width="7"
      stroke-linecap="round"
      stroke-linejoin="round"
    />

    <!-- Medical cross — upper left quadrant -->
    <!-- Vertical -->
    <rect x="136" y="118" width="18" height="52" rx="6" fill="url(#goldIcon)"/>
    <!-- Horizontal -->
    <rect x="114" y="140" width="62" height="18" rx="6" fill="url(#goldIcon)"/>

    <!-- Chart bars — lower right quadrant -->
    <rect x="286" y="300" width="22" height="46" rx="5" fill="url(#goldIcon)" opacity="0.75"/>
    <rect x="318" y="280" width="22" height="66" rx="5" fill="url(#goldIcon)" opacity="0.85"/>
    <rect x="350" y="258" width="22" height="88" rx="5" fill="url(#goldIcon)"/>
  </g>
</svg>
